<svg xmlns="http://www.w3.org/2000/svg" version="1.1" xmlns:xlink="http://www.w3.org/1999/xlink" xmlns:svgjs="http://svgjs.dev/svgjs" viewBox="0 0 7.278960691849493 3.157125987832609"><g transform="matrix(0.7840285297596352,0,0,0.7840285297596352,3.233987608967333,0.7537627772215408)"><rect width="8.148634581823002" height="8.148634581823002" x="-3.5571259878326087" y="-3.0223144805703672" fill="#ffffff"></rect><g clip-path="url(#SvgjsClipPath6806)"><g clip-path="url(#SvgjsClipPath6801d9bb12df-3871-4c7e-9e39-75a34d4afd73)"><path d=" M -1.2895672463364254 0.16243556400470832 L -1.5437260489295501 -0.09172323858841636 L -2.6874520978591003 1.0520028103411339 L -1.5437260489295501 2.195728859270684 L -1.2895672463364254 1.9415700566775593 L -2.179134492672851 1.0520028103411339 Z" fill="#ebebeb" transform="matrix(1,0,0,1,0,0)" fill-rule="nonzero"></path></g><g clip-path="url(#SvgjsClipPath6801d9bb12df-3871-4c7e-9e39-75a34d4afd73)"><path d=" M -1.0354084437433009 0.416594366597833 L -0.3999999999999999 1.0520028103411339 L -1.0354084437433009 1.687411254084435 L -1.6708168874866016 1.0520028103411339 Z" fill="#ebebeb" transform="matrix(1,0,0,1,0,0)" fill-rule="nonzero"></path></g></g><g><path d=" M 1.0331912057545662 1.4701992507656012 L 0.6887941371697108 1.4701992507656012 L 0.5759245096503044 2.1040056206822677 L 0.05498776725304414 2.1040056206822677 L 0.42253757994444446 0.020258651093226554 L 1.3052359490064689 0.020258651093226554 Q 1.6322684595114154 0.020258651093226554 1.771184924150685 0.17075148778576854 Q 1.8724781796168188 0.286515208318493 1.8724781796168188 0.46594897514421607 Q 1.8724781796168188 0.5267249284238964 1.8609018075635464 0.593289067730213 L 1.8030199472971842 0.9203215782351597 Q 1.7596085520974125 1.1605312983405631 1.5483397621251902 1.315365274553082 Q 1.337070972152968 1.4701992507656012 1.0331912057545662 1.4701992507656012 M 1.1229080891674277 0.4717371611708523 L 0.8624397179687976 0.4717371611708523 L 0.7669346485292998 1.0187207406879755 L 1.024508926714612 1.0187207406879755 Q 1.261824553806697 1.0187207406879755 1.2994477629798327 0.8074519507157532 L 1.3197064140730594 0.6887941371697106 Q 1.3254946000996957 0.6627473000498476 1.3254946000996957 0.619335904850076 Q 1.3254946000996957 0.5759245096503043 1.2820832048999238 0.5238308354105783 Q 1.2386718097001521 0.4717371611708523 1.1229080891674277 0.4717371611708523 M 2.4541922884251135 1.5107165529520548 Q 2.4541922884251135 1.7104089708710044 2.742154543250266 1.7104089708710044 Q 3.030116798075418 1.7104089708710044 3.030116798075418 1.5309752040452813 Q 3.030116798075418 1.4354701346057837 2.9317176356226025 1.3746941813261033 Q 2.8333184731697862 1.313918228046423 2.692954962023858 1.2734009258599694 Q 2.5525914508779293 1.2328836236735157 2.4122279397320012 1.1793429029271307 Q 2.2718644285860727 1.1258021821807458 2.173465266133257 1.0114855081546803 Q 2.0750661036804408 0.8971688341286148 2.0750661036804408 0.726417346342846 Q 2.0750661036804408 0 3.0098581469821912 0 Q 3.3513611225537288 0 3.526453749859474 0.12878713909265582 Q 3.7015463771652204 0.25757427818531187 3.7015463771652204 0.48620762623744285 Q 3.7015463771652204 0.5701363236236681 3.6798406795653342 0.6468297884765981 Q 3.6581349819654485 0.7235232533295279 3.6349822378589036 0.7553582764760272 L 3.6118294937523587 0.7900873926358445 L 3.0995750303950524 0.7900873926358445 Q 3.1632450766880513 0.7235232533295279 3.1632450766880513 0.6222299978633941 Q 3.1632450766880513 0.43411395199771663 2.9172471705560117 0.43411395199771663 Q 2.6075792181309736 0.43411395199771663 2.6075792181309736 0.6309122769033484 Q 2.6075792181309736 0.7293114393561642 2.7059783805837894 0.7871932996225264 Q 2.804377543036605 0.8450751598888888 2.9447410541825336 0.878357229542047 Q 3.085104565328462 0.9116392991952054 3.2269151229810498 0.9608388804216133 Q 3.368725680633637 1.0100384616480211 3.467124843086453 1.1243551356740866 Q 3.565524005539269 1.238671809700152 3.565524005539269 1.420999669539193 Q 3.565524005539269 1.7885494822305934 3.345572936527092 1.9665362025496573 Q 3.1256218675149157 2.1445229228687213 2.6683551714106537 2.1445229228687213 Q 2.211088475306392 2.1445229228687213 2.0432310805339418 1.982453714122907 Q 1.9187850809612628 1.8609018075635462 1.9187850809612628 1.646738924578006 Q 1.9187850809612628 1.5657043202050986 1.9361496390411714 1.4701992507656012 L 1.9448319180811258 1.4238937625525112 L 2.465768660478386 1.4238937625525112 L 2.4599804744517497 1.4586228787123288 Q 2.4541922884251135 1.4875638088455099 2.4541922884251135 1.5107165529520548" fill="#ff0000" fill-rule="nonzero"></path></g><g></g></g><defs><clipPath id="SvgjsClipPath6806"><path d=" M -2.6874520978591003 -0.09172323858841636 h 2.2874520978591004 v 2.2874520978591004 h -2.2874520978591004 Z"></path></clipPath><clipPath id="SvgjsClipPath6801d9bb12df-3871-4c7e-9e39-75a34d4afd73"><path d=" M -2.6874520978591003 -0.09172323858841636 L -0.3999999999999999 -0.09172323858841636 L -0.3999999999999999 2.195728859270684 L -2.6874520978591003 2.195728859270684 Z"></path></clipPath></defs></svg>